<svg aria-hidden="true" style="width:0;height:0;position:absolute;overflow:hidden" xmlns="http://www.w3.org/2000/svg"><defs><symbol id="icon-twitter" viewBox="0 0 24 24"><path fill="currentColor" d="M20.833 5.262a6.685 6.685 0 0 1-.616.696.997.997 0 0 0-.278.908c.037.182.06.404.061.634 0 5.256-2.429 8.971-5.81 10.898-2.647 1.509-5.938 1.955-9.222 1.12a12.682 12.682 0 0 0 3.593-1.69 1 1 0 0 0-.156-1.741c-2.774-1.233-4.13-2.931-4.769-4.593-.417-1.084-.546-2.198-.52-3.227.021-.811.138-1.56.278-2.182.394.343.803.706 1.235 1.038a11.59 11.59 0 0 0 7.395 2.407c.543-.015.976-.457.976-1V7.519a3.459 3.459 0 0 1 1.196-2.674c.725-.631 1.636-.908 2.526-.846s1.753.463 2.384 1.188a1 1 0 0 0 1.033.304c.231-.067.463-.143.695-.228zm1.591-3.079a9.884 9.884 0 0 1-2.287 1.205 5.469 5.469 0 0 0-3.276-1.385 5.465 5.465 0 0 0-3.977 1.332A5.464 5.464 0 0 0 11 7.507a9.589 9.589 0 0 1-5.15-1.97 9.87 9.87 0 0 1-2.034-2.116 1 1 0 0 0-1.729.172s-.132.299-.285.76a13.57 13.57 0 0 0-.357 1.29 13.224 13.224 0 0 0-.326 2.571c-.031 1.227.12 2.612.652 3.996.683 1.775 1.966 3.478 4.147 4.823A10.505 10.505 0 0 1 1.045 18a1 1 0 0 0-.53 1.873c4.905 2.725 10.426 2.678 14.666.261C19.221 17.833 22 13.434 22 7.5a5.565 5.565 0 0 0-.023-.489 8.626 8.626 0 0 0 1.996-3.781 1 1 0 0 0-1.55-1.047z"/></symbol><symbol id="icon-instagram" viewBox="0 0 32 32"><path fill="currentColor" d="M16 2.881c4.275 0 4.781.019 6.462.094 1.563.069 2.406.331 2.969.55a4.952 4.952 0 0 1 1.837 1.194 5.015 5.015 0 0 1 1.2 1.838c.219.563.481 1.412.55 2.969.075 1.688.094 2.194.094 6.463s-.019 4.781-.094 6.463c-.069 1.563-.331 2.406-.55 2.969a4.94 4.94 0 0 1-1.194 1.837 5.02 5.02 0 0 1-1.837 1.2c-.563.219-1.413.481-2.969.55-1.688.075-2.194.094-6.463.094s-4.781-.019-6.463-.094c-1.563-.069-2.406-.331-2.969-.55a4.952 4.952 0 0 1-1.838-1.194 5.02 5.02 0 0 1-1.2-1.837c-.219-.563-.481-1.413-.55-2.969-.075-1.688-.094-2.194-.094-6.463s.019-4.781.094-6.463c.069-1.563.331-2.406.55-2.969a4.964 4.964 0 0 1 1.194-1.838 5.015 5.015 0 0 1 1.838-1.2c.563-.219 1.412-.481 2.969-.55 1.681-.075 2.188-.094 6.463-.094zM16 0c-4.344 0-4.887.019-6.594.094-1.7.075-2.869.35-3.881.744-1.056.412-1.95.956-2.837 1.85a7.833 7.833 0 0 0-1.85 2.831C.444 6.538.169 7.7.094 9.4.019 11.113 0 11.656 0 16s.019 4.887.094 6.594c.075 1.7.35 2.869.744 3.881.413 1.056.956 1.95 1.85 2.837a7.82 7.82 0 0 0 2.831 1.844c1.019.394 2.181.669 3.881.744 1.706.075 2.25.094 6.594.094s4.888-.019 6.594-.094c1.7-.075 2.869-.35 3.881-.744 1.05-.406 1.944-.956 2.831-1.844s1.438-1.781 1.844-2.831c.394-1.019.669-2.181.744-3.881.075-1.706.094-2.25.094-6.594s-.019-4.887-.094-6.594c-.075-1.7-.35-2.869-.744-3.881a7.506 7.506 0 0 0-1.831-2.844A7.82 7.82 0 0 0 26.482.843C25.463.449 24.301.174 22.601.099c-1.712-.081-2.256-.1-6.6-.1z"/><path fill="currentColor" d="M16 7.781c-4.537 0-8.219 3.681-8.219 8.219s3.681 8.219 8.219 8.219 8.219-3.681 8.219-8.219A8.221 8.221 0 0 0 16 7.781zm0 13.55a5.331 5.331 0 1 1 0-10.663 5.331 5.331 0 0 1 0 10.663zM26.462 7.456a1.919 1.919 0 1 1-3.838 0 1.919 1.919 0 0 1 3.838 0z"/></symbol></defs></svg>