<svg aria-hidden="true" style="width:0;height:0;position:absolute;overflow:hidden" xmlns="http://www.w3.org/2000/svg"><defs><symbol id="icon-logo-chocolate" viewBox="0 0 31 32"><path fill="#fcf1e0" style="fill:var(--color1,#fcf1e0)" d="M3.765 19.89 14.052 3.258l.611-.643 7.862 5.242.054 3.163 1.919 3.13-8.476 13.437-12.256-7.696z"/><path fill="none" stroke="#fd9222" style="stroke:var(--color2,#fd9222)" stroke-linejoin="round" stroke-linecap="round" stroke-width="2.618" d="M20.651 23.521 7.11 15.06m3.734-6.125 13.541 8.461m-14.238 8.02L21.349 7.041m4.592 7.803c-2.902-1.813-4.041-3.23-2.174-6.293l-9.188-5.742L3.377 21.184l13.541 8.461 9.024-14.802z"/></symbol><symbol id="icon-mobile-menu" viewBox="0 0 32 32"><path fill="currentColor" d="M6.4 11.733V9.6h19.2v2.133H6.4zm0 5.334h19.2v-2.133H6.4v2.133zm0 5.333h19.2v-2.133H6.4V22.4z"/></symbol><symbol id="icon-x" viewBox="0 0 24 24"><path fill="currentColor" d="M5.293 6.707 10.586 12l-5.293 5.293a.999.999 0 1 0 1.414 1.414L12 13.414l5.293 5.293a.999.999 0 1 0 1.414-1.414L13.414 12l5.293-5.293a.999.999 0 1 0-1.414-1.414L12 10.586 6.707 5.293a.999.999 0 1 0-1.414 1.414z"/></symbol><symbol id="icon-instagram" viewBox="0 0 32 32"><path fill="currentColor" d="M16 2.881c4.275 0 4.781.019 6.462.094 1.563.069 2.406.331 2.969.55a4.952 4.952 0 0 1 1.837 1.194 5.015 5.015 0 0 1 1.2 1.838c.219.563.481 1.412.55 2.969.075 1.688.094 2.194.094 6.463s-.019 4.781-.094 6.463c-.069 1.563-.331 2.406-.55 2.969a4.94 4.94 0 0 1-1.194 1.837 5.02 5.02 0 0 1-1.837 1.2c-.563.219-1.413.481-2.969.55-1.688.075-2.194.094-6.463.094s-4.781-.019-6.463-.094c-1.563-.069-2.406-.331-2.969-.55a4.952 4.952 0 0 1-1.838-1.194 5.02 5.02 0 0 1-1.2-1.837c-.219-.563-.481-1.413-.55-2.969-.075-1.688-.094-2.194-.094-6.463s.019-4.781.094-6.463c.069-1.563.331-2.406.55-2.969a4.964 4.964 0 0 1 1.194-1.838 5.015 5.015 0 0 1 1.838-1.2c.563-.219 1.412-.481 2.969-.55 1.681-.075 2.188-.094 6.463-.094zM16 0c-4.344 0-4.887.019-6.594.094-1.7.075-2.869.35-3.881.744-1.056.412-1.95.956-2.837 1.85a7.833 7.833 0 0 0-1.85 2.831C.444 6.538.169 7.7.094 9.4.019 11.113 0 11.656 0 16s.019 4.887.094 6.594c.075 1.7.35 2.869.744 3.881.413 1.056.956 1.95 1.85 2.837a7.82 7.82 0 0 0 2.831 1.844c1.019.394 2.181.669 3.881.744 1.706.075 2.25.094 6.594.094s4.888-.019 6.594-.094c1.7-.075 2.869-.35 3.881-.744 1.05-.406 1.944-.956 2.831-1.844s1.438-1.781 1.844-2.831c.394-1.019.669-2.181.744-3.881.075-1.706.094-2.25.094-6.594s-.019-4.887-.094-6.594c-.075-1.7-.35-2.869-.744-3.881a7.506 7.506 0 0 0-1.831-2.844A7.82 7.82 0 0 0 26.482.843C25.463.449 24.301.174 22.601.099c-1.712-.081-2.256-.1-6.6-.1z"/><path fill="currentColor" d="M16 7.781c-4.537 0-8.219 3.681-8.219 8.219s3.681 8.219 8.219 8.219 8.219-3.681 8.219-8.219A8.221 8.221 0 0 0 16 7.781zm0 13.55a5.331 5.331 0 1 1 0-10.663 5.331 5.331 0 0 1 0 10.663zM26.462 7.456a1.919 1.919 0 1 1-3.838 0 1.919 1.919 0 0 1 3.838 0z"/></symbol><symbol id="icon-twitter" viewBox="0 0 24 24"><path fill="currentColor" d="M20.833 5.262a6.685 6.685 0 0 1-.616.696.997.997 0 0 0-.278.908c.037.182.06.404.061.634 0 5.256-2.429 8.971-5.81 10.898-2.647 1.509-5.938 1.955-9.222 1.12a12.682 12.682 0 0 0 3.593-1.69 1 1 0 0 0-.156-1.741c-2.774-1.233-4.13-2.931-4.769-4.593-.417-1.084-.546-2.198-.52-3.227.021-.811.138-1.56.278-2.182.394.343.803.706 1.235 1.038a11.59 11.59 0 0 0 7.395 2.407c.543-.015.976-.457.976-1V7.519a3.459 3.459 0 0 1 1.196-2.674c.725-.631 1.636-.908 2.526-.846s1.753.463 2.384 1.188a1 1 0 0 0 1.033.304c.231-.067.463-.143.695-.228zm1.591-3.079a9.884 9.884 0 0 1-2.287 1.205 5.469 5.469 0 0 0-3.276-1.385 5.465 5.465 0 0 0-3.977 1.332A5.464 5.464 0 0 0 11 7.507a9.589 9.589 0 0 1-5.15-1.97 9.87 9.87 0 0 1-2.034-2.116 1 1 0 0 0-1.729.172s-.132.299-.285.76a13.57 13.57 0 0 0-.357 1.29 13.224 13.224 0 0 0-.326 2.571c-.031 1.227.12 2.612.652 3.996.683 1.775 1.966 3.478 4.147 4.823A10.505 10.505 0 0 1 1.045 18a1 1 0 0 0-.53 1.873c4.905 2.725 10.426 2.678 14.666.261C19.221 17.833 22 13.434 22 7.5a5.565 5.565 0 0 0-.023-.489 8.626 8.626 0 0 0 1.996-3.781 1 1 0 0 0-1.55-1.047z"/></symbol><symbol id="icon-scroll-arrow" viewBox="0 0 32 32"><path fill="currentColor" d="M17 19.867a1.334 1.334 0 0 1-1.894 0l-6.107-6.12a1.334 1.334 0 1 0-1.894 1.88l6.12 6.12a4.001 4.001 0 0 0 5.654 0l6.12-6.12a1.337 1.337 0 0 0-.434-2.172 1.331 1.331 0 0 0-1.46.292l-6.107 6.12z"/></symbol><symbol id="icon-coin" viewBox="0 0 32 32"><path fill="#fd9222" style="fill:var(--color1,#fd9222)" d="M16 .762C7.619.762.762 7.619.762 16S7.619 31.238 16 31.238 31.238 24.381 31.238 16 24.381.762 16 .762zm0 27.429c-6.705 0-12.191-5.486-12.191-12.19S9.295 3.81 16 3.81c6.705 0 12.19 5.486 12.19 12.191S22.704 28.191 16 28.191z"/><path fill="#fd9222" style="fill:var(--color1,#fd9222)" d="M17.981 14.476h-3.962c-.762 0-1.371-.61-1.371-1.371s.61-1.371 1.371-1.371h5.638c.914 0 1.524-.61 1.524-1.524s-.61-1.524-1.524-1.524h-2.133V7.315c0-.914-.61-1.524-1.524-1.524s-1.524.61-1.524 1.524v1.371h-.457c-2.438 0-4.419 1.981-4.419 4.419s1.981 4.419 4.419 4.419h3.809c.762 0 1.371.61 1.371 1.371s-.61 1.371-1.371 1.371H12.19c-.914 0-1.524.61-1.524 1.524s.61 1.524 1.524 1.524h2.286v1.371c0 .914.61 1.524 1.524 1.524s1.524-.61 1.524-1.524v-1.371h.457c2.438 0 4.419-1.981 4.419-4.419s-1.981-4.419-4.419-4.419z"/></symbol><symbol id="icon-chocolate" viewBox="0 0 32 32"><path style="fill:var(--color2,#000)" d="m13.822 2.413 7.527 7.536.08-.08a.856.856 0 0 1 1.184-.013l.873.873c.305.305.315.77.083 1.094l-.004.007-.143.192 6.16 6.16c.55.55.55 1.43 0 1.98l-9.43 9.43c-.55.55-1.43.55-1.98 0l-4.447-4.447a.853.853 0 0 1-.612.317.842.842 0 0 1-.644-.246l-2.6-2.6a.856.856 0 0 1-.013-1.184l.006-.007.077-.076-7.527-7.527c-.55-.55-.55-1.43 0-1.98l9.43-9.43c.55-.55 1.43-.55 1.98 0v.001zm6.582 8.48-1.756-1.755a.59.59 0 0 0-.85 0l-3.58 3.58a.621.621 0 0 0-.179.43.602.602 0 0 0 .179.43l1.749 1.749.61-.61-1.565-1.565 3.21-3.22 1.569 1.574.613-.613zm-5.076 5.072-1.754-1.754a.59.59 0 0 0-.85 0l-3.59 3.59c-.24.23-.24.61 0 .85l1.752 1.752.616-.616-1.57-1.564 3.22-3.21 1.564 1.563.612-.611zM8.822 8.193l3.58 3.58c.24.24.62.24.85-.01l3.58-3.58a.57.57 0 0 0 .18-.42h.01c0-.15-.06-.31-.18-.43l-3.58-3.58a.602.602 0 0 0-.86 0l-3.58 3.59c-.24.23-.24.61 0 .85zm-5.07 5.07 3.58 3.58c.24.24.62.24.85 0l3.58-3.58a.578.578 0 0 0 .18-.43h.01c0-.16-.06-.31-.18-.43l-3.58-3.58a.59.59 0 0 0-.85 0l-3.59 3.59c-.24.23-.24.61 0 .85zm6.933 8.754 2.362 2.363 9.636-13.04-.655-.655-11.343 11.332z"/><path fill="#fd9222" style="fill:var(--color1,#fd9222)" d="m13.822 2.413 7.527 7.536.08-.08a.856.856 0 0 1 1.184-.013l.873.873c.305.305.315.77.083 1.094l-.004.007-.143.192 6.16 6.16c.55.55.55 1.43 0 1.98l-9.43 9.43c-.55.55-1.43.55-1.98 0l-4.447-4.447a.853.853 0 0 1-.612.317.842.842 0 0 1-.644-.246l-2.6-2.6a.856.856 0 0 1-.013-1.184l.006-.007.077-.076-7.527-7.527c-.55-.55-.55-1.43 0-1.98l9.43-9.43c.55-.55 1.43-.55 1.98 0v.001zm6.582 8.48-1.756-1.755a.59.59 0 0 0-.85 0l-3.58 3.58a.621.621 0 0 0-.179.43.602.602 0 0 0 .179.43l1.749 1.749.61-.61-1.565-1.565 3.21-3.22 1.569 1.574.613-.613zm-5.076 5.072-1.754-1.754a.59.59 0 0 0-.85 0l-3.59 3.59c-.24.23-.24.61 0 .85l1.752 1.752.616-.616-1.57-1.564 3.22-3.21 1.564 1.563.612-.611zM8.822 8.193l3.58 3.58c.24.24.62.24.85-.01l3.58-3.58a.57.57 0 0 0 .18-.42h.01c0-.15-.06-.31-.18-.43l-3.58-3.58a.602.602 0 0 0-.86 0l-3.58 3.59c-.24.23-.24.61 0 .85zm-5.07 5.07 3.58 3.58c.24.24.62.24.85 0l3.58-3.58a.578.578 0 0 0 .18-.43h.01c0-.16-.06-.31-.18-.43l-3.58-3.58a.59.59 0 0 0-.85 0l-3.59 3.59c-.24.23-.24.61 0 .85zm6.933 8.754 2.362 2.363 9.636-13.04-.655-.655-11.343 11.332z"/></symbol><symbol id="icon-spoon" viewBox="0 0 32 32"><path fill="#fd9222" style="fill:var(--color1,#fd9222)" d="M15.452 14.106a5.154 5.154 0 0 1-1.177-3.282c0-4.324 5.181-8.642 10.362-8.642a5.183 5.183 0 0 1 5.181 5.182c0 5.182-4.318 10.364-8.646 10.364a5.15 5.15 0 0 1-3.281-1.177L5.133 29.312a1.73 1.73 0 0 1-2.445-2.445l12.764-12.761z"/></symbol></defs></svg>