<svg aria-hidden="true" style="width:0;height:0;position:absolute;overflow:hidden" xmlns="http://www.w3.org/2000/svg"><defs><symbol id="icon-x-close" viewBox="0 0 32 32"><path stroke-linejoin="round" stroke-linecap="round" stroke-width="2.667" d="M24 8 8 24M8 8l16 16"/></symbol><symbol id="icon-Frame" viewBox="0 0 40 32"><path fill="gold" style="fill:var(--color1,gold)" d="M40.209.495H.307V30.19h39.902V.495z"/><path fill="#0057b7" style="fill:var(--color2,#0057b7)" d="M.307.495h39.902v14.847H.307V.495z"/></symbol><symbol id="icon-Mastercard" viewBox="0 0 49 32"><path fill="#ed0006" style="fill:var(--color4,#ed0006)" d="M24.381 23.29a10.302 10.302 0 0 1-6.578 2.345c-5.601 0-10.141-4.396-10.141-9.818s4.54-9.818 10.141-9.818c2.51 0 4.807.883 6.578 2.345a10.302 10.302 0 0 1 6.578-2.345c5.601 0 10.141 4.395 10.141 9.818s-4.54 9.818-10.141 9.818c-2.51 0-4.807-.883-6.578-2.345z"/><path fill="#f9a000" style="fill:var(--color5,#f9a000)" d="M24.381 23.29c2.18-1.801 3.563-4.48 3.563-7.472s-1.383-5.672-3.563-7.472a10.302 10.302 0 0 1 6.578-2.345c5.601 0 10.141 4.395 10.141 9.818s-4.54 9.818-10.141 9.818c-2.51 0-4.807-.883-6.578-2.345z"/><path fill="#ff5e00" style="fill:var(--color6,#ff5e00)" d="M24.381 23.29c2.18-1.801 3.563-4.48 3.563-7.472s-1.383-5.671-3.563-7.472c-2.18 1.801-3.563 4.48-3.563 7.472s1.383 5.672 3.563 7.472z"/></symbol></defs></svg>